<svg width="12" height="12" viewBox="0 0 12 12" fill="none" xmlns="http://www.w3.org/2000/svg">
<path d="M1 2.635L1.64 2L10 10.36L9.365 11L7.825 9.46C7.25 9.65 6.64 9.75 6 9.75C3.5 9.75 1.365 8.195 0.5 6C0.845 5.12 1.395 4.345 2.095 3.73L1 2.635ZM6 4.5C6.39782 4.5 6.77936 4.65804 7.06066 4.93934C7.34196 5.22064 7.5 5.60218 7.5 6C7.50025 6.17028 7.47151 6.33937 7.415 6.5L5.5 4.585C5.66063 4.52849 5.82972 4.49975 6 4.5ZM6 2.25C8.5 2.25 10.635 3.805 11.5 6C11.0919 7.0366 10.3985 7.93636 9.5 8.595L8.79 7.88C9.48144 7.40169 10.0391 6.75453 10.41 6C10.0058 5.17497 9.37821 4.47988 8.59863 3.99375C7.81906 3.50762 6.91873 3.24994 6 3.25C5.455 3.25 4.92 3.34 4.42 3.5L3.65 2.735C4.37 2.425 5.165 2.25 6 2.25ZM1.59 6C1.99422 6.82503 2.62179 7.52012 3.40136 8.00625C4.18094 8.49238 5.08127 8.75006 6 8.75C6.345 8.75 6.685 8.715 7 8.645L5.86 7.5C5.51208 7.46271 5.18741 7.30744 4.93999 7.06001C4.69256 6.81259 4.53729 6.48792 4.5 6.14L2.8 4.435C2.305 4.86 1.89 5.39 1.59 6Z" fill="white"/>
</svg>
