<svg width="19" height="19" viewBox="0 0 19 19" fill="none" xmlns="http://www.w3.org/2000/svg">
<path d="M17.5 15.0002V9.45222C17.5 8.91789 17.4995 8.65057 17.4346 8.40193C17.377 8.18159 17.2825 7.97307 17.1546 7.78464C17.0102 7.57201 16.8096 7.39569 16.4074 7.04383L11.6074 2.84383C10.8608 2.19054 10.4875 1.86406 10.0674 1.73982C9.69719 1.63035 9.30261 1.63035 8.93242 1.73982C8.51261 1.86397 8.13985 2.19014 7.39436 2.84244L2.59277 7.04383C2.19064 7.39569 1.99004 7.57201 1.8457 7.78464C1.71779 7.97307 1.62255 8.18159 1.56497 8.40193C1.5 8.65057 1.5 8.91788 1.5 9.45222V15.0002C1.5 15.932 1.5 16.3978 1.65224 16.7654C1.85523 17.2554 2.24432 17.6452 2.73438 17.8482C3.10192 18.0005 3.56786 18.0005 4.49974 18.0005C5.43163 18.0005 5.89808 18.0005 6.26562 17.8482C6.75568 17.6452 7.14467 17.2555 7.34766 16.7654C7.4999 16.3979 7.5 15.932 7.5 15.0001V14.0001C7.5 12.8955 8.39543 12.0001 9.5 12.0001C10.6046 12.0001 11.5 12.8955 11.5 14.0001V15.0001C11.5 15.932 11.5 16.3979 11.6522 16.7654C11.8552 17.2555 12.2443 17.6452 12.7344 17.8482C13.1019 18.0005 13.5679 18.0005 14.4997 18.0005C15.4316 18.0005 15.8981 18.0005 16.2656 17.8482C16.7557 17.6452 17.1447 17.2554 17.3477 16.7654C17.4999 16.3978 17.5 15.932 17.5 15.0002Z" stroke="white" stroke-width="2" stroke-linecap="round" stroke-linejoin="round"/>
</svg>
